<?xml version="1.0" standalone="no"?>
<!DOCTYPE svg PUBLIC "-//W3C//DTD SVG 20010904//EN"
 "http://www.w3.org/TR/2001/REC-SVG-20010904/DTD/svg10.dtd">
<svg version="1.0" xmlns="http://www.w3.org/2000/svg"
 width="1536.000000pt" height="1024.000000pt" viewBox="0 0 1536.000000 1024.000000"
 preserveAspectRatio="xMidYMid meet">

<g transform="translate(0.000000,1024.000000) scale(0.100000,-0.100000)"
fill="#000000" stroke="none">
<path d="M5270 6620 l0 -130 85 0 c69 0 85 3 85 15 0 12 -14 15 -70 15 l-70 0
0 115 c0 96 -3 115 -15 115 -13 0 -15 -21 -15 -130z"/>
<path d="M5457 6743 c-16 -16 -4 -23 38 -23 l44 0 3 -112 c2 -93 6 -113 18
-113 12 0 16 20 18 113 l3 112 44 0 c55 0 59 15 8 24 -51 8 -168 8 -176 -1z"/>
<path d="M5716 6723 c-3 -15 -5 -73 -3 -128 l2 -100 88 -3 c73 -2 87 0 87 13
0 12 -14 15 -75 15 -81 0 -81 0 -69 59 6 30 7 31 65 31 33 0 59 4 59 10 0 6
-27 10 -60 10 -57 0 -60 1 -61 25 -1 14 -2 33 -3 43 -1 14 10 17 72 20 52 2
72 6 69 15 -2 8 -33 13 -84 15 l-81 3 -6 -28z"/>
<path d="M5994 6736 c-31 -14 -64 -73 -64 -114 0 -46 23 -94 53 -112 35 -22
106 -26 138 -10 36 20 19 28 -44 23 -60 -5 -65 -4 -85 22 -33 41 -31 117 4
152 23 22 32 25 80 21 38 -3 54 -1 54 8 0 26 -83 33 -136 10z"/>
<path d="M4854 6703 c-48 -114 -84 -203 -84 -207 0 -3 6 -6 14 -6 8 0 20 16
26 35 8 23 18 35 31 36 106 4 103 5 122 -34 10 -20 26 -37 34 -37 17 0 19 -6
-44 143 -52 121 -71 135 -99 70z m63 -58 l21 -55 -50 0 c-27 0 -48 3 -46 8 2
4 11 28 22 55 10 26 21 47 25 47 3 0 16 -25 28 -55z"/>
<path d="M5060 6615 l0 -125 80 0 c64 0 80 3 80 15 0 12 -14 15 -65 15 l-65 0
0 110 c0 91 -3 110 -15 110 -13 0 -15 -21 -15 -125z"/>
<path d="M4604 6472 c-28 -18 -34 -56 -34 -214 l0 -163 113 -79 c61 -43 218
-149 347 -235 134 -90 240 -168 247 -182 9 -17 13 -110 13 -341 0 -175 -3
-318 -7 -318 -4 0 -18 11 -32 23 -15 13 -66 55 -116 93 -107 81 -251 192 -424
327 -69 54 -167 129 -217 167 -50 38 -97 77 -104 85 -8 9 -17 46 -21 83 l-7
67 1 -68 c1 -37 -1 -67 -4 -67 -3 0 -23 -18 -45 -40 -21 -22 -43 -40 -48 -40
-5 0 -16 -8 -25 -18 -9 -10 -32 -26 -52 -35 -20 -9 -42 -23 -49 -32 -7 -8 -21
-15 -31 -15 -11 0 -19 -5 -19 -12 0 -6 -3 -8 -7 -5 -3 4 -16 1 -27 -6 -29 -19
-65 -27 -72 -16 -3 5 -15 14 -27 20 -20 9 -19 8 3 -13 14 -13 215 -170 446
-350 244 -190 426 -339 432 -353 8 -18 12 -120 12 -330 0 -303 0 -304 22 -319
33 -23 57 -20 120 19 32 19 205 118 385 220 180 103 338 198 351 211 l22 25 0
644 0 644 -22 24 c-13 14 -192 120 -398 237 -206 117 -436 248 -510 291 -133
77 -183 94 -216 71z"/>
<path d="M6250 5186 l0 -495 93 -3 c50 -2 107 -1 125 1 l32 3 0 325 0 325 48
-41 c26 -22 180 -168 342 -325 l295 -285 118 -1 117 0 0 495 0 495 -125 0
-125 0 0 -326 0 -326 -282 270 c-156 149 -308 295 -338 326 l-54 56 -123 0
-123 0 0 -494z"/>
<path d="M7700 5185 l0 -495 78 0 c42 0 271 -1 507 -3 l430 -2 3 70 c2 38 0
80 -3 92 l-5 23 -380 0 -380 0 0 110 0 110 325 0 325 0 0 90 0 90 -325 0 -325
0 0 110 0 110 364 0 c422 0 383 -12 371 116 l-7 74 -489 0 -489 0 0 -495z"/>
<path d="M10708 5628 c-15 -29 -53 -100 -84 -158 -30 -58 -123 -233 -206 -390
-83 -157 -164 -309 -180 -337 l-29 -53 138 0 138 0 40 81 c22 45 48 94 57 110
l18 29 292 0 293 0 56 -108 56 -107 134 -6 c74 -3 136 -5 137 -3 2 1 -113 224
-256 496 l-260 493 -159 3 -159 2 -26 -52z m190 -536 c-105 -1 -193 0 -196 2
-4 5 24 63 99 203 16 28 42 80 60 114 l31 62 98 -189 99 -189 -191 -3z"/>
<path d="M8921 5603 c245 -252 399 -416 399 -424 0 -9 -370 -399 -434 -458
-14 -14 -26 -27 -26 -30 0 -3 72 -5 161 -3 l160 3 82 87 c45 48 118 124 162
170 l80 83 165 -174 c162 -173 164 -174 204 -173 23 1 94 3 159 4 l119 2 -234
241 c-128 132 -234 243 -235 247 -1 4 101 115 228 247 l229 240 -157 3 -158 3
-110 -118 c-60 -65 -133 -143 -162 -173 l-53 -55 -48 50 c-26 28 -98 106 -161
173 l-114 122 -161 0 -160 0 65 -67z"/>
<path d="M3910 5411 c0 -29 -4 -50 -9 -47 -5 3 -12 -1 -15 -9 -3 -8 -9 -14
-13 -13 -16 6 -133 -92 -133 -110 0 -6 -7 -9 -15 -6 -8 4 -15 1 -15 -5 0 -6
-7 -11 -15 -11 -20 0 -98 -39 -107 -54 -5 -7 -8 -6 -8 4 0 10 -3 11 -8 4 -4
-6 -17 -16 -30 -23 -12 -7 -21 -15 -18 -19 5 -8 -14 -26 -32 -30 -7 -1 -12 8
-12 20 0 13 -5 30 -10 38 -7 10 -9 -90 -8 -302 l3 -318 25 -24 c25 -25 85 -61
430 -259 612 -352 602 -347 648 -347 32 0 49 6 67 25 25 24 25 27 25 200 l0
175 -37 26 c-21 14 -173 113 -338 219 -371 239 -343 218 -353 263 -5 20 -10
174 -12 342 -1 168 -4 307 -6 309 -2 2 -4 -19 -4 -48z"/>
</g>
</svg>
