<?xml version="1.0" encoding="UTF-8"?>
<svg xmlns="http://www.w3.org/2000/svg" xmlns:xlink="http://www.w3.org/1999/xlink" width="750px" height="500px" viewBox="0 0 750 500" version="1.1">
<g id="surface1">
<path style=" stroke:none;fill-rule:nonzero;fill:rgb(0%,0%,0%);fill-opacity:1;" d="M 257.324219 176.757812 L 257.324219 183.105469 L 261.476562 183.105469 C 264.84375 183.105469 265.625 182.957031 265.625 182.371094 C 265.625 181.785156 264.941406 181.640625 262.207031 181.640625 L 258.789062 181.640625 L 258.789062 176.023438 C 258.789062 171.335938 258.644531 170.410156 258.058594 170.410156 C 257.421875 170.410156 257.324219 171.433594 257.324219 176.757812 Z M 257.324219 176.757812 "/>
<path style=" stroke:none;fill-rule:nonzero;fill:rgb(0%,0%,0%);fill-opacity:1;" d="M 266.457031 170.75 C 265.675781 171.53125 266.261719 171.875 268.3125 171.875 L 270.460938 171.875 L 270.605469 177.34375 C 270.703125 181.882812 270.898438 182.859375 271.484375 182.859375 C 272.070312 182.859375 272.265625 181.882812 272.363281 177.34375 L 272.511719 171.875 L 274.660156 171.875 C 277.34375 171.875 277.539062 171.140625 275.050781 170.703125 C 272.558594 170.3125 266.847656 170.3125 266.457031 170.75 Z M 266.457031 170.75 "/>
<path style=" stroke:none;fill-rule:nonzero;fill:rgb(0%,0%,0%);fill-opacity:1;" d="M 279.101562 171.726562 C 278.957031 172.460938 278.859375 175.292969 278.957031 177.976562 L 279.054688 182.859375 L 283.351562 183.007812 C 286.914062 183.105469 287.597656 183.007812 287.597656 182.371094 C 287.597656 181.785156 286.914062 181.640625 283.9375 181.640625 C 279.980469 181.640625 279.980469 181.640625 280.566406 178.757812 C 280.859375 177.292969 280.910156 177.246094 283.742188 177.246094 C 285.351562 177.246094 286.621094 177.050781 286.621094 176.757812 C 286.621094 176.464844 285.304688 176.269531 283.691406 176.269531 C 280.910156 176.269531 280.761719 176.21875 280.714844 175.046875 C 280.664062 174.363281 280.617188 173.4375 280.566406 172.949219 C 280.519531 172.265625 281.054688 172.117188 284.082031 171.972656 C 286.621094 171.875 287.597656 171.679688 287.453125 171.238281 C 287.355469 170.847656 285.839844 170.605469 283.351562 170.507812 L 279.394531 170.359375 Z M 279.101562 171.726562 "/>
<path style=" stroke:none;fill-rule:nonzero;fill:rgb(0%,0%,0%);fill-opacity:1;" d="M 292.675781 171.09375 C 291.164062 171.777344 289.550781 174.65625 289.550781 176.660156 C 289.550781 178.90625 290.675781 181.25 292.140625 182.128906 C 293.847656 183.203125 297.316406 183.398438 298.878906 182.617188 C 300.636719 181.640625 299.804688 181.25 296.730469 181.492188 C 293.800781 181.738281 293.554688 181.6875 292.578125 180.417969 C 290.96875 178.417969 291.066406 174.707031 292.773438 172.996094 C 293.898438 171.921875 294.335938 171.777344 296.679688 171.972656 C 298.535156 172.117188 299.316406 172.019531 299.316406 171.582031 C 299.316406 170.3125 295.265625 169.96875 292.675781 171.09375 Z M 292.675781 171.09375 "/>
<path style=" stroke:none;fill-rule:nonzero;fill:rgb(0%,0%,0%);fill-opacity:1;" d="M 237.011719 172.703125 C 234.667969 178.269531 232.910156 182.617188 232.910156 182.8125 C 232.910156 182.957031 233.203125 183.105469 233.59375 183.105469 C 233.984375 183.105469 234.570312 182.324219 234.863281 181.394531 C 235.253906 180.273438 235.742188 179.6875 236.378906 179.636719 C 241.554688 179.441406 241.40625 179.394531 242.335938 181.296875 C 242.824219 182.273438 243.605469 183.105469 243.996094 183.105469 C 244.824219 183.105469 244.921875 183.398438 241.847656 176.121094 C 239.308594 170.214844 238.378906 169.53125 237.011719 172.703125 Z M 240.089844 175.535156 L 241.113281 178.222656 L 238.671875 178.222656 C 237.355469 178.222656 236.328125 178.074219 236.425781 177.832031 C 236.523438 177.636719 236.964844 176.464844 237.5 175.144531 C 237.988281 173.875 238.527344 172.851562 238.722656 172.851562 C 238.867188 172.851562 239.503906 174.070312 240.089844 175.535156 Z M 240.089844 175.535156 "/>
<path style=" stroke:none;fill-rule:nonzero;fill:rgb(0%,0%,0%);fill-opacity:1;" d="M 247.070312 177 L 247.070312 183.105469 L 250.976562 183.105469 C 254.101562 183.105469 254.882812 182.957031 254.882812 182.371094 C 254.882812 181.785156 254.199219 181.640625 251.710938 181.640625 L 248.535156 181.640625 L 248.535156 176.269531 C 248.535156 171.824219 248.390625 170.898438 247.804688 170.898438 C 247.167969 170.898438 247.070312 171.921875 247.070312 177 Z M 247.070312 177 "/>
<path style=" stroke:none;fill-rule:nonzero;fill:rgb(0%,0%,0%);fill-opacity:1;" d="M 224.804688 183.984375 C 223.4375 184.863281 223.144531 186.71875 223.144531 194.433594 L 223.144531 202.390625 L 228.664062 206.25 C 231.640625 208.347656 239.308594 213.523438 245.605469 217.722656 C 252.148438 222.117188 257.324219 225.925781 257.667969 226.609375 C 258.105469 227.441406 258.300781 231.980469 258.300781 243.261719 C 258.300781 251.804688 258.15625 258.789062 257.960938 258.789062 C 257.765625 258.789062 257.082031 258.25 256.398438 257.664062 C 255.664062 257.03125 253.175781 254.980469 250.734375 253.125 C 245.507812 249.167969 238.476562 243.75 230.03125 237.15625 C 226.660156 234.519531 221.875 230.859375 219.433594 229.003906 C 216.992188 227.148438 214.699219 225.242188 214.355469 224.851562 C 213.964844 224.414062 213.527344 222.605469 213.332031 220.800781 L 212.988281 217.527344 L 213.039062 220.847656 C 213.085938 222.65625 212.988281 224.121094 212.84375 224.121094 C 212.695312 224.121094 211.71875 225 210.644531 226.074219 C 209.621094 227.148438 208.546875 228.027344 208.300781 228.027344 C 208.058594 228.027344 207.519531 228.417969 207.082031 228.90625 C 206.640625 229.394531 205.519531 230.175781 204.542969 230.613281 C 203.566406 231.054688 202.492188 231.738281 202.148438 232.175781 C 201.808594 232.566406 201.125 232.910156 200.636719 232.910156 C 200.097656 232.910156 199.707031 233.152344 199.707031 233.496094 C 199.707031 233.789062 199.5625 233.886719 199.367188 233.738281 C 199.21875 233.542969 198.585938 233.691406 198.046875 234.03125 C 196.632812 234.960938 194.875 235.351562 194.53125 234.8125 C 194.386719 234.570312 193.800781 234.128906 193.214844 233.835938 C 192.238281 233.398438 192.285156 233.445312 193.359375 234.472656 C 194.042969 235.105469 203.859375 242.773438 215.136719 251.5625 C 227.050781 260.839844 235.9375 268.113281 236.230469 268.796875 C 236.621094 269.675781 236.816406 274.65625 236.816406 284.910156 C 236.816406 299.707031 236.816406 299.753906 237.890625 300.488281 C 239.503906 301.609375 240.675781 301.464844 243.75 299.558594 C 245.3125 298.632812 253.761719 293.796875 262.550781 288.816406 C 271.339844 283.789062 279.054688 279.148438 279.6875 278.515625 L 280.761719 277.292969 L 280.761719 214.402344 L 279.6875 213.230469 C 279.054688 212.546875 270.3125 207.371094 260.253906 201.660156 C 250.195312 195.945312 238.964844 189.550781 235.351562 187.449219 C 228.859375 183.691406 226.417969 182.859375 224.804688 183.984375 Z M 224.804688 183.984375 "/>
<path style=" stroke:none;fill-rule:nonzero;fill:rgb(0%,0%,0%);fill-opacity:1;" d="M 305.175781 246.777344 L 305.175781 270.945312 L 309.71875 271.09375 C 312.160156 271.191406 314.941406 271.140625 315.820312 271.042969 L 317.382812 270.898438 L 317.382812 239.160156 L 319.726562 241.160156 C 320.996094 242.234375 328.515625 249.363281 336.425781 257.03125 L 350.832031 270.945312 L 356.59375 270.996094 L 362.304688 270.996094 L 362.304688 222.65625 L 350.097656 222.65625 L 350.097656 254.492188 L 336.328125 241.308594 C 328.710938 234.03125 321.289062 226.902344 319.824219 225.390625 L 317.1875 222.65625 L 305.175781 222.65625 Z M 305.175781 246.777344 "/>
<path style=" stroke:none;fill-rule:nonzero;fill:rgb(0%,0%,0%);fill-opacity:1;" d="M 375.976562 246.824219 L 375.976562 270.996094 L 379.785156 270.996094 C 381.835938 270.996094 393.019531 271.042969 404.542969 271.140625 L 425.539062 271.238281 L 425.683594 267.820312 C 425.78125 265.964844 425.683594 263.914062 425.539062 263.328125 L 425.292969 262.207031 L 388.183594 262.207031 L 388.183594 251.464844 L 419.921875 251.464844 L 419.921875 242.675781 L 388.183594 242.675781 L 388.183594 231.933594 L 405.957031 231.933594 C 426.5625 231.933594 424.660156 232.519531 424.074219 226.269531 L 423.730469 222.65625 L 375.976562 222.65625 Z M 375.976562 246.824219 "/>
<path style=" stroke:none;fill-rule:nonzero;fill:rgb(0%,0%,0%);fill-opacity:1;" d="M 522.851562 225.195312 C 522.121094 226.609375 520.265625 230.078125 518.75 232.910156 C 517.285156 235.742188 512.746094 244.285156 508.691406 251.953125 C 504.640625 259.617188 500.683594 267.039062 499.902344 268.40625 L 498.488281 270.996094 L 511.964844 270.996094 L 513.917969 267.039062 C 514.992188 264.84375 516.261719 262.449219 516.699219 261.667969 L 517.578125 260.253906 L 546.144531 260.253906 L 548.878906 265.527344 L 551.613281 270.75 L 558.15625 271.042969 C 561.769531 271.191406 564.796875 271.289062 564.84375 271.191406 C 564.941406 271.140625 559.328125 260.253906 552.34375 246.972656 L 539.648438 222.898438 L 531.886719 222.753906 L 524.121094 222.65625 Z M 532.128906 251.367188 C 527.003906 251.414062 522.707031 251.367188 522.558594 251.269531 C 522.363281 251.023438 523.730469 248.191406 527.394531 241.355469 C 528.175781 239.988281 529.445312 237.449219 530.324219 235.789062 L 531.835938 232.761719 L 536.621094 241.992188 L 541.457031 251.21875 Z M 532.128906 251.367188 "/>
<path style=" stroke:none;fill-rule:nonzero;fill:rgb(0%,0%,0%);fill-opacity:1;" d="M 435.597656 226.414062 C 447.558594 238.71875 455.078125 246.726562 455.078125 247.117188 C 455.078125 247.558594 437.011719 266.601562 433.886719 269.480469 C 433.203125 270.164062 432.617188 270.800781 432.617188 270.945312 C 432.617188 271.09375 436.132812 271.191406 440.480469 271.09375 L 448.292969 270.945312 L 452.296875 266.699219 C 454.492188 264.355469 458.058594 260.644531 460.207031 258.398438 L 464.113281 254.34375 L 472.167969 262.839844 C 480.078125 271.289062 480.175781 271.335938 482.128906 271.289062 C 483.253906 271.238281 486.71875 271.140625 489.894531 271.09375 L 495.703125 270.996094 L 484.277344 259.226562 C 478.027344 252.78125 472.851562 247.363281 472.804688 247.167969 C 472.753906 246.972656 477.734375 241.550781 483.9375 235.105469 L 495.117188 223.386719 L 487.453125 223.242188 L 479.738281 223.09375 L 474.367188 228.855469 C 471.4375 232.03125 467.871094 235.839844 466.457031 237.304688 L 463.867188 239.988281 L 461.523438 237.546875 C 460.253906 236.179688 456.738281 232.371094 453.664062 229.101562 L 448.097656 223.144531 L 432.421875 223.144531 Z M 435.597656 226.414062 "/>
<path style=" stroke:none;fill-rule:nonzero;fill:rgb(0%,0%,0%);fill-opacity:1;" d="M 190.917969 235.789062 C 190.917969 237.207031 190.722656 238.230469 190.480469 238.085938 C 190.234375 237.9375 189.894531 238.132812 189.746094 238.523438 C 189.601562 238.914062 189.308594 239.207031 189.113281 239.160156 C 188.332031 238.867188 182.617188 243.652344 182.617188 244.53125 C 182.617188 244.824219 182.277344 244.96875 181.886719 244.824219 C 181.496094 244.628906 181.152344 244.773438 181.152344 245.066406 C 181.152344 245.359375 180.8125 245.605469 180.421875 245.605469 C 179.445312 245.605469 175.636719 247.507812 175.195312 248.242188 C 174.953125 248.582031 174.804688 248.535156 174.804688 248.046875 C 174.804688 247.558594 174.660156 247.507812 174.414062 247.851562 C 174.21875 248.144531 173.585938 248.632812 172.949219 248.972656 C 172.363281 249.316406 171.925781 249.707031 172.070312 249.902344 C 172.316406 250.292969 171.386719 251.171875 170.507812 251.367188 C 170.167969 251.414062 169.921875 250.976562 169.921875 250.390625 C 169.921875 249.753906 169.679688 248.925781 169.433594 248.535156 C 169.09375 248.046875 168.996094 252.929688 169.042969 263.28125 L 169.191406 278.808594 L 170.410156 279.980469 C 171.632812 281.199219 174.5625 282.957031 191.40625 292.625 C 221.289062 309.8125 220.800781 309.570312 223.046875 309.570312 C 224.609375 309.570312 225.441406 309.277344 226.320312 308.347656 C 227.539062 307.175781 227.539062 307.03125 227.539062 298.582031 L 227.539062 290.039062 L 225.734375 288.769531 C 224.707031 288.085938 217.285156 283.25 209.230469 278.074219 C 191.113281 266.40625 192.480469 267.429688 191.992188 265.234375 C 191.75 264.257812 191.503906 256.738281 191.40625 248.535156 C 191.359375 240.332031 191.210938 233.542969 191.113281 233.445312 C 191.015625 233.347656 190.917969 234.375 190.917969 235.789062 Z M 190.917969 235.789062 "/>
</g>
</svg>
