<?xml version="1.0" encoding="UTF-8"?>
<svg xmlns="http://www.w3.org/2000/svg" xmlns:xlink="http://www.w3.org/1999/xlink" width="500px" height="500px" viewBox="0 0 500 500" version="1.1">
<g id="surface1">
<path style=" stroke:none;fill-rule:nonzero;fill:rgb(0%,0%,0%);fill-opacity:1;" d="M 171.550781 176.757812 L 171.550781 183.105469 L 174.316406 183.105469 C 176.5625 183.105469 177.082031 182.957031 177.082031 182.371094 C 177.082031 181.785156 176.628906 181.640625 174.804688 181.640625 L 172.527344 181.640625 L 172.527344 176.023438 C 172.527344 171.335938 172.429688 170.410156 172.039062 170.410156 C 171.613281 170.410156 171.550781 171.433594 171.550781 176.757812 Z M 171.550781 176.757812 "/>
<path style=" stroke:none;fill-rule:nonzero;fill:rgb(0%,0%,0%);fill-opacity:1;" d="M 177.636719 170.75 C 177.117188 171.53125 177.507812 171.875 178.875 171.875 L 180.304688 171.875 L 180.402344 177.34375 C 180.46875 181.882812 180.597656 182.859375 180.988281 182.859375 C 181.378906 182.859375 181.511719 181.882812 181.574219 177.34375 L 181.671875 171.875 L 183.105469 171.875 C 184.894531 171.875 185.027344 171.140625 183.367188 170.703125 C 181.707031 170.3125 177.898438 170.3125 177.636719 170.75 Z M 177.636719 170.75 "/>
<path style=" stroke:none;fill-rule:nonzero;fill:rgb(0%,0%,0%);fill-opacity:1;" d="M 186.066406 171.726562 C 185.96875 172.460938 185.90625 175.292969 185.96875 177.976562 L 186.035156 182.859375 L 188.898438 183.007812 C 191.277344 183.105469 191.730469 183.007812 191.730469 182.371094 C 191.730469 181.785156 191.277344 181.640625 189.289062 181.640625 C 186.652344 181.640625 186.652344 181.640625 187.042969 178.757812 C 187.238281 177.292969 187.273438 177.246094 189.160156 177.246094 C 190.234375 177.246094 191.082031 177.050781 191.082031 176.757812 C 191.082031 176.464844 190.203125 176.269531 189.128906 176.269531 C 187.273438 176.269531 187.175781 176.21875 187.140625 175.046875 C 187.109375 174.363281 187.078125 173.4375 187.042969 172.949219 C 187.011719 172.265625 187.371094 172.117188 189.386719 171.972656 C 191.082031 171.875 191.730469 171.679688 191.632812 171.238281 C 191.570312 170.847656 190.558594 170.605469 188.898438 170.507812 L 186.261719 170.359375 Z M 186.066406 171.726562 "/>
<path style=" stroke:none;fill-rule:nonzero;fill:rgb(0%,0%,0%);fill-opacity:1;" d="M 195.117188 171.09375 C 194.109375 171.777344 193.035156 174.65625 193.035156 176.660156 C 193.035156 178.90625 193.78125 181.25 194.757812 182.128906 C 195.898438 183.203125 198.210938 183.398438 199.25 182.617188 C 200.421875 181.640625 199.871094 181.25 197.820312 181.492188 C 195.867188 181.738281 195.703125 181.6875 195.050781 180.417969 C 193.976562 178.417969 194.042969 174.707031 195.183594 172.996094 C 195.929688 171.921875 196.222656 171.777344 197.785156 171.972656 C 199.023438 172.117188 199.542969 172.019531 199.542969 171.582031 C 199.542969 170.3125 196.84375 169.96875 195.117188 171.09375 Z M 195.117188 171.09375 "/>
<path style=" stroke:none;fill-rule:nonzero;fill:rgb(0%,0%,0%);fill-opacity:1;" d="M 158.007812 172.703125 C 156.445312 178.269531 155.273438 182.617188 155.273438 182.8125 C 155.273438 182.957031 155.46875 183.105469 155.730469 183.105469 C 155.988281 183.105469 156.378906 182.324219 156.574219 181.394531 C 156.835938 180.273438 157.160156 179.6875 157.585938 179.636719 C 161.035156 179.441406 160.9375 179.394531 161.554688 181.296875 C 161.882812 182.273438 162.402344 183.105469 162.664062 183.105469 C 163.214844 183.105469 163.28125 183.398438 161.230469 176.121094 C 159.539062 170.214844 158.917969 169.53125 158.007812 172.703125 Z M 160.058594 175.535156 L 160.742188 178.222656 L 159.113281 178.222656 C 158.234375 178.222656 157.550781 178.074219 157.617188 177.832031 C 157.683594 177.636719 157.976562 176.464844 158.332031 175.144531 C 158.660156 173.875 159.015625 172.851562 159.148438 172.851562 C 159.246094 172.851562 159.667969 174.070312 160.058594 175.535156 Z M 160.058594 175.535156 "/>
<path style=" stroke:none;fill-rule:nonzero;fill:rgb(0%,0%,0%);fill-opacity:1;" d="M 164.714844 177 L 164.714844 183.105469 L 167.316406 183.105469 C 169.402344 183.105469 169.921875 182.957031 169.921875 182.371094 C 169.921875 181.785156 169.464844 181.640625 167.804688 181.640625 L 165.691406 181.640625 L 165.691406 176.269531 C 165.691406 171.824219 165.59375 170.898438 165.203125 170.898438 C 164.777344 170.898438 164.714844 171.921875 164.714844 177 Z M 164.714844 177 "/>
<path style=" stroke:none;fill-rule:nonzero;fill:rgb(0%,0%,0%);fill-opacity:1;" d="M 149.871094 183.984375 C 148.957031 184.863281 148.761719 186.71875 148.761719 194.433594 L 148.761719 202.390625 L 152.441406 206.25 C 154.425781 208.347656 159.539062 213.523438 163.738281 217.722656 C 168.097656 222.117188 171.550781 225.925781 171.777344 226.609375 C 172.070312 227.441406 172.199219 231.980469 172.199219 243.261719 C 172.199219 251.804688 172.101562 258.789062 171.972656 258.789062 C 171.84375 258.789062 171.386719 258.25 170.929688 257.664062 C 170.441406 257.03125 168.78125 254.980469 167.15625 253.125 C 163.671875 249.167969 158.984375 243.75 153.351562 237.15625 C 151.105469 234.519531 147.917969 230.859375 146.289062 229.003906 C 144.660156 227.148438 143.132812 225.242188 142.902344 224.851562 C 142.644531 224.414062 142.351562 222.605469 142.21875 220.800781 L 141.992188 217.527344 L 142.023438 220.847656 C 142.058594 222.65625 141.992188 224.121094 141.894531 224.121094 C 141.796875 224.121094 141.144531 225 140.429688 226.074219 C 139.746094 227.148438 139.03125 228.027344 138.867188 228.027344 C 138.703125 228.027344 138.347656 228.417969 138.054688 228.90625 C 137.761719 229.394531 137.011719 230.175781 136.359375 230.613281 C 135.710938 231.054688 134.992188 231.738281 134.765625 232.175781 C 134.539062 232.566406 134.082031 232.910156 133.757812 232.910156 C 133.398438 232.910156 133.136719 233.152344 133.136719 233.496094 C 133.136719 233.789062 133.039062 233.886719 132.910156 233.738281 C 132.8125 233.542969 132.390625 233.691406 132.03125 234.03125 C 131.085938 234.960938 129.914062 235.351562 129.6875 234.8125 C 129.589844 234.570312 129.199219 234.128906 128.808594 233.835938 C 128.15625 233.398438 128.191406 233.445312 128.90625 234.472656 C 129.363281 235.105469 135.90625 242.773438 143.425781 251.5625 C 151.367188 260.839844 157.292969 268.113281 157.488281 268.796875 C 157.746094 269.675781 157.878906 274.65625 157.878906 284.910156 C 157.878906 299.707031 157.878906 299.753906 158.59375 300.488281 C 159.667969 301.609375 160.449219 301.464844 162.5 299.558594 C 163.542969 298.632812 169.171875 293.796875 175.03125 288.816406 C 180.890625 283.789062 186.035156 279.148438 186.457031 278.515625 L 187.175781 277.292969 L 187.175781 214.402344 L 186.457031 213.230469 C 186.035156 212.546875 180.207031 207.371094 173.503906 201.660156 C 166.796875 195.945312 159.308594 189.550781 156.902344 187.449219 C 152.570312 183.691406 150.945312 182.859375 149.871094 183.984375 Z M 149.871094 183.984375 "/>
<path style=" stroke:none;fill-rule:nonzero;fill:rgb(0%,0%,0%);fill-opacity:1;" d="M 203.449219 246.777344 L 203.449219 270.945312 L 206.476562 271.09375 C 208.105469 271.191406 209.960938 271.140625 210.546875 271.042969 L 211.589844 270.898438 L 211.589844 239.160156 L 213.152344 241.160156 C 213.996094 242.234375 219.011719 249.363281 224.285156 257.03125 L 233.886719 270.945312 L 237.726562 270.996094 L 241.535156 270.996094 L 241.535156 222.65625 L 233.398438 222.65625 L 233.398438 254.492188 L 224.21875 241.308594 C 219.140625 234.03125 214.191406 226.902344 213.214844 225.390625 L 211.457031 222.65625 L 203.449219 222.65625 Z M 203.449219 246.777344 "/>
<path style=" stroke:none;fill-rule:nonzero;fill:rgb(0%,0%,0%);fill-opacity:1;" d="M 250.652344 246.824219 L 250.652344 270.996094 L 253.191406 270.996094 C 254.558594 270.996094 262.011719 271.042969 269.695312 271.140625 L 283.691406 271.238281 L 283.789062 267.820312 C 283.855469 265.964844 283.789062 263.914062 283.691406 263.328125 L 283.527344 262.207031 L 258.789062 262.207031 L 258.789062 251.464844 L 279.949219 251.464844 L 279.949219 242.675781 L 258.789062 242.675781 L 258.789062 231.933594 L 270.636719 231.933594 C 284.375 231.933594 283.105469 232.519531 282.714844 226.269531 L 282.488281 222.65625 L 250.652344 222.65625 Z M 250.652344 246.824219 "/>
<path style=" stroke:none;fill-rule:nonzero;fill:rgb(0%,0%,0%);fill-opacity:1;" d="M 348.566406 225.195312 C 348.078125 226.609375 346.84375 230.078125 345.832031 232.910156 C 344.855469 235.742188 341.828125 244.285156 339.128906 251.953125 C 336.425781 259.617188 333.789062 267.039062 333.269531 268.40625 L 332.324219 270.996094 L 341.308594 270.996094 L 342.609375 267.039062 C 343.328125 264.84375 344.171875 262.449219 344.464844 261.667969 L 345.050781 260.253906 L 364.09375 260.253906 L 365.917969 265.527344 L 367.742188 270.75 L 372.101562 271.042969 C 374.511719 271.191406 376.53125 271.289062 376.5625 271.191406 C 376.628906 271.140625 372.882812 260.253906 368.230469 246.972656 L 359.765625 222.898438 L 354.589844 222.753906 L 349.414062 222.65625 Z M 354.753906 251.367188 C 351.335938 251.414062 348.46875 251.367188 348.371094 251.269531 C 348.242188 251.023438 349.152344 248.191406 351.59375 241.355469 C 352.117188 239.988281 352.960938 237.449219 353.546875 235.789062 L 354.558594 232.761719 L 357.746094 241.992188 L 360.96875 251.21875 Z M 354.753906 251.367188 "/>
<path style=" stroke:none;fill-rule:nonzero;fill:rgb(0%,0%,0%);fill-opacity:1;" d="M 290.398438 226.414062 C 298.371094 238.71875 303.386719 246.726562 303.386719 247.117188 C 303.386719 247.558594 291.339844 266.601562 289.257812 269.480469 C 288.800781 270.164062 288.410156 270.800781 288.410156 270.945312 C 288.410156 271.09375 290.753906 271.191406 293.652344 271.09375 L 298.859375 270.945312 L 301.53125 266.699219 C 302.996094 264.355469 305.371094 260.644531 306.804688 258.398438 L 309.40625 254.34375 L 314.777344 262.839844 C 320.050781 271.289062 320.117188 271.335938 321.417969 271.289062 C 322.167969 271.238281 324.480469 271.140625 326.59375 271.09375 L 330.46875 270.996094 L 322.851562 259.226562 C 318.683594 252.78125 315.234375 247.363281 315.203125 247.167969 C 315.167969 246.972656 318.488281 241.550781 322.625 235.105469 L 330.078125 223.386719 L 324.96875 223.242188 L 319.824219 223.09375 L 316.242188 228.855469 C 314.289062 232.03125 311.914062 235.839844 310.96875 237.304688 L 309.246094 239.988281 L 307.683594 237.546875 C 306.835938 236.179688 304.492188 232.371094 302.441406 229.101562 L 298.730469 223.144531 L 288.28125 223.144531 Z M 290.398438 226.414062 "/>
<path style=" stroke:none;fill-rule:nonzero;fill:rgb(0%,0%,0%);fill-opacity:1;" d="M 127.277344 235.789062 C 127.277344 237.207031 127.148438 238.230469 126.984375 238.085938 C 126.824219 237.9375 126.59375 238.132812 126.496094 238.523438 C 126.398438 238.914062 126.203125 239.207031 126.074219 239.160156 C 125.554688 238.867188 121.746094 243.652344 121.746094 244.53125 C 121.746094 244.824219 121.515625 244.96875 121.257812 244.824219 C 120.996094 244.628906 120.769531 244.773438 120.769531 245.066406 C 120.769531 245.359375 120.539062 245.605469 120.28125 245.605469 C 119.628906 245.605469 117.089844 247.507812 116.796875 248.242188 C 116.632812 248.582031 116.535156 248.535156 116.535156 248.046875 C 116.535156 247.558594 116.4375 247.507812 116.277344 247.851562 C 116.144531 248.144531 115.722656 248.632812 115.300781 248.972656 C 114.910156 249.316406 114.617188 249.707031 114.714844 249.902344 C 114.875 250.292969 114.257812 251.171875 113.671875 251.367188 C 113.445312 251.414062 113.28125 250.976562 113.28125 250.390625 C 113.28125 249.753906 113.117188 248.925781 112.957031 248.535156 C 112.726562 248.046875 112.664062 252.929688 112.695312 263.28125 L 112.792969 278.808594 L 113.605469 279.980469 C 114.421875 281.199219 116.375 282.957031 127.605469 292.625 C 147.527344 309.8125 147.199219 309.570312 148.699219 309.570312 C 149.738281 309.570312 150.292969 309.277344 150.878906 308.347656 C 151.691406 307.175781 151.691406 307.03125 151.691406 298.582031 L 151.691406 290.039062 L 150.488281 288.769531 C 149.804688 288.085938 144.855469 283.25 139.484375 278.074219 C 127.410156 266.40625 128.320312 267.429688 127.996094 265.234375 C 127.832031 264.257812 127.667969 256.738281 127.605469 248.535156 C 127.570312 240.332031 127.472656 233.542969 127.410156 233.445312 C 127.34375 233.347656 127.277344 234.375 127.277344 235.789062 Z M 127.277344 235.789062 "/>
</g>
</svg>
